<svg width="1171" height="16" viewBox="0 0 1171 16" fill="none" xmlns="http://www.w3.org/2000/svg">
<path d="M2.84 10.8V8.68H8.76C9.46667 8.68 10.0267 8.49333 10.44 8.12C10.8533 7.73333 11.06 7.2 11.06 6.52C11.06 5.81333 10.8533 5.27333 10.44 4.9C10.0267 4.52667 9.46667 4.34 8.76 4.34H3.16V15H0.5V2.06H8.52C9.24 2.06 9.91333 2.14667 10.54 2.32C11.18 2.49333 11.7333 2.76 12.2 3.12C12.68 3.48 13.0533 3.94 13.32 4.5C13.5867 5.06 13.72 5.73333 13.72 6.52C13.72 7.29333 13.5867 7.95333 13.32 8.5C13.0533 9.04667 12.68 9.49333 12.2 9.84C11.7333 10.1733 11.18 10.42 10.54 10.58C9.91333 10.7267 9.24 10.8 8.52 10.8H2.84ZM20.3916 15.22C19.4049 15.22 18.5049 15.0067 17.6916 14.58C16.8916 14.14 16.2516 13.5333 15.7716 12.76C15.3049 11.9733 15.0716 11.0667 15.0716 10.04C15.0716 8.98667 15.3116 8.07333 15.7916 7.3C16.2716 6.52667 16.9182 5.92667 17.7316 5.5C18.5582 5.06 19.4916 4.84 20.5316 4.84C21.6782 4.84 22.5982 5.07333 23.2916 5.54C23.9982 5.99333 24.5116 6.61333 24.8316 7.4C25.1516 8.18667 25.3116 9.06667 25.3116 10.04C25.3116 10.6267 25.2182 11.2267 25.0316 11.84C24.8449 12.44 24.5582 13 24.1716 13.52C23.7849 14.0267 23.2782 14.44 22.6516 14.76C22.0249 15.0667 21.2716 15.22 20.3916 15.22ZM21.2316 13.22C22.0182 13.22 22.6982 13.0867 23.2716 12.82C23.8449 12.5533 24.2849 12.18 24.5916 11.7C24.8982 11.22 25.0516 10.6667 25.0516 10.04C25.0516 9.36 24.8916 8.78667 24.5716 8.32C24.2649 7.84 23.8249 7.48 23.2516 7.24C22.6916 6.98667 22.0182 6.86 21.2316 6.86C20.1249 6.86 19.2649 7.15333 18.6516 7.74C18.0382 8.31333 17.7316 9.08 17.7316 10.04C17.7316 10.68 17.8782 11.24 18.1716 11.72C18.4649 12.1867 18.8716 12.5533 19.3916 12.82C19.9249 13.0867 20.5382 13.22 21.2316 13.22ZM25.0516 5.06H27.6516V15H25.2316C25.2316 15 25.2116 14.8733 25.1716 14.62C25.1449 14.3533 25.1182 14.02 25.0916 13.62C25.0649 13.22 25.0516 12.8267 25.0516 12.44V5.06ZM29.3047 5.06H37.0247V7.08H29.3047V5.06ZM31.8647 2.34H34.4647V15H31.8647V2.34ZM41.6566 0.699999V2.98H38.6366V0.699999H41.6566ZM38.8366 5.06H41.4366V15H38.8366V5.06ZM44.0281 5.06H46.6281V15H44.0281V5.06ZM51.2481 4.84C51.8615 4.84 52.4281 4.92 52.9481 5.08C53.4681 5.24 53.9215 5.48667 54.3081 5.82C54.6948 6.15333 54.9948 6.58 55.2081 7.1C55.4215 7.60667 55.5281 8.21333 55.5281 8.92V15H52.9281V9.38C52.9281 8.54 52.7215 7.92667 52.3081 7.54C51.9081 7.14 51.2481 6.94 50.3281 6.94C49.6348 6.94 49.0081 7.07333 48.4481 7.34C47.8881 7.60667 47.4348 7.94667 47.0881 8.36C46.7415 8.76 46.5415 9.18 46.4881 9.62L46.4681 8.6C46.5348 8.13333 46.6881 7.68 46.9281 7.24C47.1681 6.8 47.4881 6.4 47.8881 6.04C48.3015 5.66667 48.7881 5.37333 49.3481 5.16C49.9081 4.94667 50.5415 4.84 51.2481 4.84ZM57.4953 11.7H59.8953C60.042 12.1533 60.342 12.5267 60.7953 12.82C61.262 13.1 61.8686 13.24 62.6153 13.24C63.122 13.24 63.5153 13.1933 63.7953 13.1C64.0753 13.0067 64.2686 12.8733 64.3753 12.7C64.482 12.5133 64.5353 12.3067 64.5353 12.08C64.5353 11.8 64.4486 11.5867 64.2753 11.44C64.102 11.28 63.8353 11.1533 63.4753 11.06C63.1153 10.9667 62.6553 10.88 62.0953 10.8C61.5353 10.7067 60.9953 10.5933 60.4753 10.46C59.9553 10.3267 59.4953 10.1533 59.0953 9.94C58.6953 9.71333 58.3753 9.43333 58.1353 9.1C57.9086 8.75333 57.7953 8.33333 57.7953 7.84C57.7953 7.36 57.9086 6.93333 58.1353 6.56C58.3753 6.18667 58.702 5.87333 59.1153 5.62C59.542 5.36667 60.0353 5.17333 60.5953 5.04C61.1686 4.90667 61.782 4.84 62.4353 4.84C63.422 4.84 64.242 4.98667 64.8953 5.28C65.5486 5.56 66.0353 5.96 66.3553 6.48C66.6886 6.98667 66.8553 7.57333 66.8553 8.24H64.5553C64.4486 7.74667 64.2353 7.39333 63.9153 7.18C63.5953 6.95333 63.102 6.84 62.4353 6.84C61.782 6.84 61.2886 6.94 60.9553 7.14C60.622 7.34 60.4553 7.61333 60.4553 7.96C60.4553 8.24 60.5553 8.46 60.7553 8.62C60.9686 8.76667 61.2753 8.88667 61.6753 8.98C62.0886 9.07333 62.602 9.17333 63.2153 9.28C63.7353 9.38667 64.2286 9.50667 64.6953 9.64C65.1753 9.77333 65.602 9.94667 65.9753 10.16C66.3486 10.36 66.642 10.6333 66.8553 10.98C67.082 11.3133 67.1953 11.74 67.1953 12.26C67.1953 12.9 67.0086 13.44 66.6353 13.88C66.2753 14.32 65.7553 14.66 65.0753 14.9C64.3953 15.1267 63.582 15.24 62.6353 15.24C61.7953 15.24 61.0686 15.1533 60.4553 14.98C59.8553 14.7933 59.3553 14.56 58.9553 14.28C58.5553 13.9867 58.242 13.68 58.0153 13.36C57.802 13.0267 57.6553 12.7133 57.5753 12.42C57.4953 12.1267 57.4686 11.8867 57.4953 11.7Z" fill="black"/>
<path d="M99.0621 2.5345C99.3843 1.66389 100.616 1.66389 100.938 2.53451L102.001 5.40803C102.102 5.68175 102.318 5.89756 102.592 5.99885L105.465 7.06215C106.336 7.38431 106.336 8.61569 105.465 8.93785L102.592 10.0012C102.318 10.1024 102.102 10.3182 102.001 10.592L100.938 13.4655C100.616 14.3361 99.3843 14.3361 99.0621 13.4655L97.9988 10.592C97.8976 10.3182 97.6818 10.1024 97.408 10.0012L94.5345 8.93785C93.6639 8.61569 93.6639 7.38431 94.5345 7.06215L97.408 5.99885C97.6818 5.89756 97.8976 5.68175 97.9988 5.40803L99.0621 2.5345Z" fill="black"/>
<path d="M135.84 10.8V8.68H141.76C142.467 8.68 143.027 8.49333 143.44 8.12C143.853 7.73333 144.06 7.2 144.06 6.52C144.06 5.81333 143.853 5.27333 143.44 4.9C143.027 4.52667 142.467 4.34 141.76 4.34H136.16V15H133.5V2.06H141.52C142.24 2.06 142.913 2.14667 143.54 2.32C144.18 2.49333 144.733 2.76 145.2 3.12C145.68 3.48 146.053 3.94 146.32 4.5C146.587 5.06 146.72 5.73333 146.72 6.52C146.72 7.29333 146.587 7.95333 146.32 8.5C146.053 9.04667 145.68 9.49333 145.2 9.84C144.733 10.1733 144.18 10.42 143.54 10.58C142.913 10.7267 142.24 10.8 141.52 10.8H135.84ZM153.392 15.22C152.405 15.22 151.505 15.0067 150.692 14.58C149.892 14.14 149.252 13.5333 148.772 12.76C148.305 11.9733 148.072 11.0667 148.072 10.04C148.072 8.98667 148.312 8.07333 148.792 7.3C149.272 6.52667 149.918 5.92667 150.732 5.5C151.558 5.06 152.492 4.84 153.532 4.84C154.678 4.84 155.598 5.07333 156.292 5.54C156.998 5.99333 157.512 6.61333 157.832 7.4C158.152 8.18667 158.312 9.06667 158.312 10.04C158.312 10.6267 158.218 11.2267 158.032 11.84C157.845 12.44 157.558 13 157.172 13.52C156.785 14.0267 156.278 14.44 155.652 14.76C155.025 15.0667 154.272 15.22 153.392 15.22ZM154.232 13.22C155.018 13.22 155.698 13.0867 156.272 12.82C156.845 12.5533 157.285 12.18 157.592 11.7C157.898 11.22 158.052 10.6667 158.052 10.04C158.052 9.36 157.892 8.78667 157.572 8.32C157.265 7.84 156.825 7.48 156.252 7.24C155.692 6.98667 155.018 6.86 154.232 6.86C153.125 6.86 152.265 7.15333 151.652 7.74C151.038 8.31333 150.732 9.08 150.732 10.04C150.732 10.68 150.878 11.24 151.172 11.72C151.465 12.1867 151.872 12.5533 152.392 12.82C152.925 13.0867 153.538 13.22 154.232 13.22ZM158.052 5.06H160.652V15H158.232C158.232 15 158.212 14.8733 158.172 14.62C158.145 14.3533 158.118 14.02 158.092 13.62C158.065 13.22 158.052 12.8267 158.052 12.44V5.06ZM162.305 5.06H170.025V7.08H162.305V5.06ZM164.865 2.34H167.465V15H164.865V2.34ZM174.657 0.699999V2.98H171.637V0.699999H174.657ZM171.837 5.06H174.437V15H171.837V5.06ZM177.028 5.06H179.628V15H177.028V5.06ZM184.248 4.84C184.861 4.84 185.428 4.92 185.948 5.08C186.468 5.24 186.921 5.48667 187.308 5.82C187.695 6.15333 187.995 6.58 188.208 7.1C188.421 7.60667 188.528 8.21333 188.528 8.92V15H185.928V9.38C185.928 8.54 185.721 7.92667 185.308 7.54C184.908 7.14 184.248 6.94 183.328 6.94C182.635 6.94 182.008 7.07333 181.448 7.34C180.888 7.60667 180.435 7.94667 180.088 8.36C179.741 8.76 179.541 9.18 179.488 9.62L179.468 8.6C179.535 8.13333 179.688 7.68 179.928 7.24C180.168 6.8 180.488 6.4 180.888 6.04C181.301 5.66667 181.788 5.37333 182.348 5.16C182.908 4.94667 183.541 4.84 184.248 4.84ZM190.495 11.7H192.895C193.042 12.1533 193.342 12.5267 193.795 12.82C194.262 13.1 194.869 13.24 195.615 13.24C196.122 13.24 196.515 13.1933 196.795 13.1C197.075 13.0067 197.269 12.8733 197.375 12.7C197.482 12.5133 197.535 12.3067 197.535 12.08C197.535 11.8 197.449 11.5867 197.275 11.44C197.102 11.28 196.835 11.1533 196.475 11.06C196.115 10.9667 195.655 10.88 195.095 10.8C194.535 10.7067 193.995 10.5933 193.475 10.46C192.955 10.3267 192.495 10.1533 192.095 9.94C191.695 9.71333 191.375 9.43333 191.135 9.1C190.909 8.75333 190.795 8.33333 190.795 7.84C190.795 7.36 190.909 6.93333 191.135 6.56C191.375 6.18667 191.702 5.87333 192.115 5.62C192.542 5.36667 193.035 5.17333 193.595 5.04C194.169 4.90667 194.782 4.84 195.435 4.84C196.422 4.84 197.242 4.98667 197.895 5.28C198.549 5.56 199.035 5.96 199.355 6.48C199.689 6.98667 199.855 7.57333 199.855 8.24H197.555C197.449 7.74667 197.235 7.39333 196.915 7.18C196.595 6.95333 196.102 6.84 195.435 6.84C194.782 6.84 194.289 6.94 193.955 7.14C193.622 7.34 193.455 7.61333 193.455 7.96C193.455 8.24 193.555 8.46 193.755 8.62C193.969 8.76667 194.275 8.88667 194.675 8.98C195.089 9.07333 195.602 9.17333 196.215 9.28C196.735 9.38667 197.229 9.50667 197.695 9.64C198.175 9.77333 198.602 9.94667 198.975 10.16C199.349 10.36 199.642 10.6333 199.855 10.98C200.082 11.3133 200.195 11.74 200.195 12.26C200.195 12.9 200.009 13.44 199.635 13.88C199.275 14.32 198.755 14.66 198.075 14.9C197.395 15.1267 196.582 15.24 195.635 15.24C194.795 15.24 194.069 15.1533 193.455 14.98C192.855 14.7933 192.355 14.56 191.955 14.28C191.555 13.9867 191.242 13.68 191.015 13.36C190.802 13.0267 190.655 12.7133 190.575 12.42C190.495 12.1267 190.469 11.8867 190.495 11.7Z" fill="black"/>
<path d="M232.062 2.5345C232.384 1.66389 233.616 1.66389 233.938 2.53451L235.001 5.40803C235.102 5.68175 235.318 5.89756 235.592 5.99885L238.465 7.06215C239.336 7.38431 239.336 8.61569 238.465 8.93785L235.592 10.0012C235.318 10.1024 235.102 10.3182 235.001 10.592L233.938 13.4655C233.616 14.3361 232.384 14.3361 232.062 13.4655L230.999 10.592C230.898 10.3182 230.682 10.1024 230.408 10.0012L227.535 8.93785C226.664 8.61569 226.664 7.38431 227.535 7.06215L230.408 5.99885C230.682 5.89756 230.898 5.68175 230.999 5.40803L232.062 2.5345Z" fill="black"/>
<path d="M268.84 10.8V8.68H274.76C275.467 8.68 276.027 8.49333 276.44 8.12C276.853 7.73333 277.06 7.2 277.06 6.52C277.06 5.81333 276.853 5.27333 276.44 4.9C276.027 4.52667 275.467 4.34 274.76 4.34H269.16V15H266.5V2.06H274.52C275.24 2.06 275.913 2.14667 276.54 2.32C277.18 2.49333 277.733 2.76 278.2 3.12C278.68 3.48 279.053 3.94 279.32 4.5C279.587 5.06 279.72 5.73333 279.72 6.52C279.72 7.29333 279.587 7.95333 279.32 8.5C279.053 9.04667 278.68 9.49333 278.2 9.84C277.733 10.1733 277.18 10.42 276.54 10.58C275.913 10.7267 275.24 10.8 274.52 10.8H268.84ZM286.392 15.22C285.405 15.22 284.505 15.0067 283.692 14.58C282.892 14.14 282.252 13.5333 281.772 12.76C281.305 11.9733 281.072 11.0667 281.072 10.04C281.072 8.98667 281.312 8.07333 281.792 7.3C282.272 6.52667 282.918 5.92667 283.732 5.5C284.558 5.06 285.492 4.84 286.532 4.84C287.678 4.84 288.598 5.07333 289.292 5.54C289.998 5.99333 290.512 6.61333 290.832 7.4C291.152 8.18667 291.312 9.06667 291.312 10.04C291.312 10.6267 291.218 11.2267 291.032 11.84C290.845 12.44 290.558 13 290.172 13.52C289.785 14.0267 289.278 14.44 288.652 14.76C288.025 15.0667 287.272 15.22 286.392 15.22ZM287.232 13.22C288.018 13.22 288.698 13.0867 289.272 12.82C289.845 12.5533 290.285 12.18 290.592 11.7C290.898 11.22 291.052 10.6667 291.052 10.04C291.052 9.36 290.892 8.78667 290.572 8.32C290.265 7.84 289.825 7.48 289.252 7.24C288.692 6.98667 288.018 6.86 287.232 6.86C286.125 6.86 285.265 7.15333 284.652 7.74C284.038 8.31333 283.732 9.08 283.732 10.04C283.732 10.68 283.878 11.24 284.172 11.72C284.465 12.1867 284.872 12.5533 285.392 12.82C285.925 13.0867 286.538 13.22 287.232 13.22ZM291.052 5.06H293.652V15H291.232C291.232 15 291.212 14.8733 291.172 14.62C291.145 14.3533 291.118 14.02 291.092 13.62C291.065 13.22 291.052 12.8267 291.052 12.44V5.06ZM295.305 5.06H303.025V7.08H295.305V5.06ZM297.865 2.34H300.465V15H297.865V2.34ZM307.657 0.699999V2.98H304.637V0.699999H307.657ZM304.837 5.06H307.437V15H304.837V5.06ZM310.028 5.06H312.628V15H310.028V5.06ZM317.248 4.84C317.861 4.84 318.428 4.92 318.948 5.08C319.468 5.24 319.921 5.48667 320.308 5.82C320.695 6.15333 320.995 6.58 321.208 7.1C321.421 7.60667 321.528 8.21333 321.528 8.92V15H318.928V9.38C318.928 8.54 318.721 7.92667 318.308 7.54C317.908 7.14 317.248 6.94 316.328 6.94C315.635 6.94 315.008 7.07333 314.448 7.34C313.888 7.60667 313.435 7.94667 313.088 8.36C312.741 8.76 312.541 9.18 312.488 9.62L312.468 8.6C312.535 8.13333 312.688 7.68 312.928 7.24C313.168 6.8 313.488 6.4 313.888 6.04C314.301 5.66667 314.788 5.37333 315.348 5.16C315.908 4.94667 316.541 4.84 317.248 4.84ZM323.495 11.7H325.895C326.042 12.1533 326.342 12.5267 326.795 12.82C327.262 13.1 327.869 13.24 328.615 13.24C329.122 13.24 329.515 13.1933 329.795 13.1C330.075 13.0067 330.269 12.8733 330.375 12.7C330.482 12.5133 330.535 12.3067 330.535 12.08C330.535 11.8 330.449 11.5867 330.275 11.44C330.102 11.28 329.835 11.1533 329.475 11.06C329.115 10.9667 328.655 10.88 328.095 10.8C327.535 10.7067 326.995 10.5933 326.475 10.46C325.955 10.3267 325.495 10.1533 325.095 9.94C324.695 9.71333 324.375 9.43333 324.135 9.1C323.909 8.75333 323.795 8.33333 323.795 7.84C323.795 7.36 323.909 6.93333 324.135 6.56C324.375 6.18667 324.702 5.87333 325.115 5.62C325.542 5.36667 326.035 5.17333 326.595 5.04C327.169 4.90667 327.782 4.84 328.435 4.84C329.422 4.84 330.242 4.98667 330.895 5.28C331.549 5.56 332.035 5.96 332.355 6.48C332.689 6.98667 332.855 7.57333 332.855 8.24H330.555C330.449 7.74667 330.235 7.39333 329.915 7.18C329.595 6.95333 329.102 6.84 328.435 6.84C327.782 6.84 327.289 6.94 326.955 7.14C326.622 7.34 326.455 7.61333 326.455 7.96C326.455 8.24 326.555 8.46 326.755 8.62C326.969 8.76667 327.275 8.88667 327.675 8.98C328.089 9.07333 328.602 9.17333 329.215 9.28C329.735 9.38667 330.229 9.50667 330.695 9.64C331.175 9.77333 331.602 9.94667 331.975 10.16C332.349 10.36 332.642 10.6333 332.855 10.98C333.082 11.3133 333.195 11.74 333.195 12.26C333.195 12.9 333.009 13.44 332.635 13.88C332.275 14.32 331.755 14.66 331.075 14.9C330.395 15.1267 329.582 15.24 328.635 15.24C327.795 15.24 327.069 15.1533 326.455 14.98C325.855 14.7933 325.355 14.56 324.955 14.28C324.555 13.9867 324.242 13.68 324.015 13.36C323.802 13.0267 323.655 12.7133 323.575 12.42C323.495 12.1267 323.469 11.8867 323.495 11.7Z" fill="black"/>
<path d="M365.062 2.5345C365.384 1.66389 366.616 1.66389 366.938 2.53451L368.001 5.40803C368.102 5.68175 368.318 5.89756 368.592 5.99885L371.465 7.06215C372.336 7.38431 372.336 8.61569 371.465 8.93785L368.592 10.0012C368.318 10.1024 368.102 10.3182 368.001 10.592L366.938 13.4655C366.616 14.3361 365.384 14.3361 365.062 13.4655L363.999 10.592C363.898 10.3182 363.682 10.1024 363.408 10.0012L360.535 8.93785C359.664 8.61569 359.664 7.38431 360.535 7.06215L363.408 5.99885C363.682 5.89756 363.898 5.68175 363.999 5.40803L365.062 2.5345Z" fill="black"/>
<path d="M401.84 10.8V8.68H407.76C408.467 8.68 409.027 8.49333 409.44 8.12C409.853 7.73333 410.06 7.2 410.06 6.52C410.06 5.81333 409.853 5.27333 409.44 4.9C409.027 4.52667 408.467 4.34 407.76 4.34H402.16V15H399.5V2.06H407.52C408.24 2.06 408.913 2.14667 409.54 2.32C410.18 2.49333 410.733 2.76 411.2 3.12C411.68 3.48 412.053 3.94 412.32 4.5C412.587 5.06 412.72 5.73333 412.72 6.52C412.72 7.29333 412.587 7.95333 412.32 8.5C412.053 9.04667 411.68 9.49333 411.2 9.84C410.733 10.1733 410.18 10.42 409.54 10.58C408.913 10.7267 408.24 10.8 407.52 10.8H401.84ZM419.392 15.22C418.405 15.22 417.505 15.0067 416.692 14.58C415.892 14.14 415.252 13.5333 414.772 12.76C414.305 11.9733 414.072 11.0667 414.072 10.04C414.072 8.98667 414.312 8.07333 414.792 7.3C415.272 6.52667 415.918 5.92667 416.732 5.5C417.558 5.06 418.492 4.84 419.532 4.84C420.678 4.84 421.598 5.07333 422.292 5.54C422.998 5.99333 423.512 6.61333 423.832 7.4C424.152 8.18667 424.312 9.06667 424.312 10.04C424.312 10.6267 424.218 11.2267 424.032 11.84C423.845 12.44 423.558 13 423.172 13.52C422.785 14.0267 422.278 14.44 421.652 14.76C421.025 15.0667 420.272 15.22 419.392 15.22ZM420.232 13.22C421.018 13.22 421.698 13.0867 422.272 12.82C422.845 12.5533 423.285 12.18 423.592 11.7C423.898 11.22 424.052 10.6667 424.052 10.04C424.052 9.36 423.892 8.78667 423.572 8.32C423.265 7.84 422.825 7.48 422.252 7.24C421.692 6.98667 421.018 6.86 420.232 6.86C419.125 6.86 418.265 7.15333 417.652 7.74C417.038 8.31333 416.732 9.08 416.732 10.04C416.732 10.68 416.878 11.24 417.172 11.72C417.465 12.1867 417.872 12.5533 418.392 12.82C418.925 13.0867 419.538 13.22 420.232 13.22ZM424.052 5.06H426.652V15H424.232C424.232 15 424.212 14.8733 424.172 14.62C424.145 14.3533 424.118 14.02 424.092 13.62C424.065 13.22 424.052 12.8267 424.052 12.44V5.06ZM428.305 5.06H436.025V7.08H428.305V5.06ZM430.865 2.34H433.465V15H430.865V2.34ZM440.657 0.699999V2.98H437.637V0.699999H440.657ZM437.837 5.06H440.437V15H437.837V5.06ZM443.028 5.06H445.628V15H443.028V5.06ZM450.248 4.84C450.861 4.84 451.428 4.92 451.948 5.08C452.468 5.24 452.921 5.48667 453.308 5.82C453.695 6.15333 453.995 6.58 454.208 7.1C454.421 7.60667 454.528 8.21333 454.528 8.92V15H451.928V9.38C451.928 8.54 451.721 7.92667 451.308 7.54C450.908 7.14 450.248 6.94 449.328 6.94C448.635 6.94 448.008 7.07333 447.448 7.34C446.888 7.60667 446.435 7.94667 446.088 8.36C445.741 8.76 445.541 9.18 445.488 9.62L445.468 8.6C445.535 8.13333 445.688 7.68 445.928 7.24C446.168 6.8 446.488 6.4 446.888 6.04C447.301 5.66667 447.788 5.37333 448.348 5.16C448.908 4.94667 449.541 4.84 450.248 4.84ZM456.495 11.7H458.895C459.042 12.1533 459.342 12.5267 459.795 12.82C460.262 13.1 460.869 13.24 461.615 13.24C462.122 13.24 462.515 13.1933 462.795 13.1C463.075 13.0067 463.269 12.8733 463.375 12.7C463.482 12.5133 463.535 12.3067 463.535 12.08C463.535 11.8 463.449 11.5867 463.275 11.44C463.102 11.28 462.835 11.1533 462.475 11.06C462.115 10.9667 461.655 10.88 461.095 10.8C460.535 10.7067 459.995 10.5933 459.475 10.46C458.955 10.3267 458.495 10.1533 458.095 9.94C457.695 9.71333 457.375 9.43333 457.135 9.1C456.909 8.75333 456.795 8.33333 456.795 7.84C456.795 7.36 456.909 6.93333 457.135 6.56C457.375 6.18667 457.702 5.87333 458.115 5.62C458.542 5.36667 459.035 5.17333 459.595 5.04C460.169 4.90667 460.782 4.84 461.435 4.84C462.422 4.84 463.242 4.98667 463.895 5.28C464.549 5.56 465.035 5.96 465.355 6.48C465.689 6.98667 465.855 7.57333 465.855 8.24H463.555C463.449 7.74667 463.235 7.39333 462.915 7.18C462.595 6.95333 462.102 6.84 461.435 6.84C460.782 6.84 460.289 6.94 459.955 7.14C459.622 7.34 459.455 7.61333 459.455 7.96C459.455 8.24 459.555 8.46 459.755 8.62C459.969 8.76667 460.275 8.88667 460.675 8.98C461.089 9.07333 461.602 9.17333 462.215 9.28C462.735 9.38667 463.229 9.50667 463.695 9.64C464.175 9.77333 464.602 9.94667 464.975 10.16C465.349 10.36 465.642 10.6333 465.855 10.98C466.082 11.3133 466.195 11.74 466.195 12.26C466.195 12.9 466.009 13.44 465.635 13.88C465.275 14.32 464.755 14.66 464.075 14.9C463.395 15.1267 462.582 15.24 461.635 15.24C460.795 15.24 460.069 15.1533 459.455 14.98C458.855 14.7933 458.355 14.56 457.955 14.28C457.555 13.9867 457.242 13.68 457.015 13.36C456.802 13.0267 456.655 12.7133 456.575 12.42C456.495 12.1267 456.469 11.8867 456.495 11.7Z" fill="black"/>
<path d="M498.062 2.5345C498.384 1.66389 499.616 1.66389 499.938 2.53451L501.001 5.40803C501.102 5.68175 501.318 5.89756 501.592 5.99885L504.465 7.06215C505.336 7.38431 505.336 8.61569 504.465 8.93785L501.592 10.0012C501.318 10.1024 501.102 10.3182 501.001 10.592L499.938 13.4655C499.616 14.3361 498.384 14.3361 498.062 13.4655L496.999 10.592C496.898 10.3182 496.682 10.1024 496.408 10.0012L493.535 8.93785C492.664 8.61569 492.664 7.38431 493.535 7.06215L496.408 5.99885C496.682 5.89756 496.898 5.68175 496.999 5.40803L498.062 2.5345Z" fill="black"/>
<path d="M534.84 10.8V8.68H540.76C541.467 8.68 542.027 8.49333 542.44 8.12C542.853 7.73333 543.06 7.2 543.06 6.52C543.06 5.81333 542.853 5.27333 542.44 4.9C542.027 4.52667 541.467 4.34 540.76 4.34H535.16V15H532.5V2.06H540.52C541.24 2.06 541.913 2.14667 542.54 2.32C543.18 2.49333 543.733 2.76 544.2 3.12C544.68 3.48 545.053 3.94 545.32 4.5C545.587 5.06 545.72 5.73333 545.72 6.52C545.72 7.29333 545.587 7.95333 545.32 8.5C545.053 9.04667 544.68 9.49333 544.2 9.84C543.733 10.1733 543.18 10.42 542.54 10.58C541.913 10.7267 541.24 10.8 540.52 10.8H534.84ZM552.392 15.22C551.405 15.22 550.505 15.0067 549.692 14.58C548.892 14.14 548.252 13.5333 547.772 12.76C547.305 11.9733 547.072 11.0667 547.072 10.04C547.072 8.98667 547.312 8.07333 547.792 7.3C548.272 6.52667 548.918 5.92667 549.732 5.5C550.558 5.06 551.492 4.84 552.532 4.84C553.678 4.84 554.598 5.07333 555.292 5.54C555.998 5.99333 556.512 6.61333 556.832 7.4C557.152 8.18667 557.312 9.06667 557.312 10.04C557.312 10.6267 557.218 11.2267 557.032 11.84C556.845 12.44 556.558 13 556.172 13.52C555.785 14.0267 555.278 14.44 554.652 14.76C554.025 15.0667 553.272 15.22 552.392 15.22ZM553.232 13.22C554.018 13.22 554.698 13.0867 555.272 12.82C555.845 12.5533 556.285 12.18 556.592 11.7C556.898 11.22 557.052 10.6667 557.052 10.04C557.052 9.36 556.892 8.78667 556.572 8.32C556.265 7.84 555.825 7.48 555.252 7.24C554.692 6.98667 554.018 6.86 553.232 6.86C552.125 6.86 551.265 7.15333 550.652 7.74C550.038 8.31333 549.732 9.08 549.732 10.04C549.732 10.68 549.878 11.24 550.172 11.72C550.465 12.1867 550.872 12.5533 551.392 12.82C551.925 13.0867 552.538 13.22 553.232 13.22ZM557.052 5.06H559.652V15H557.232C557.232 15 557.212 14.8733 557.172 14.62C557.145 14.3533 557.118 14.02 557.092 13.62C557.065 13.22 557.052 12.8267 557.052 12.44V5.06ZM561.305 5.06H569.025V7.08H561.305V5.06ZM563.865 2.34H566.465V15H563.865V2.34ZM573.657 0.699999V2.98H570.637V0.699999H573.657ZM570.837 5.06H573.437V15H570.837V5.06ZM576.028 5.06H578.628V15H576.028V5.06ZM583.248 4.84C583.861 4.84 584.428 4.92 584.948 5.08C585.468 5.24 585.921 5.48667 586.308 5.82C586.695 6.15333 586.995 6.58 587.208 7.1C587.421 7.60667 587.528 8.21333 587.528 8.92V15H584.928V9.38C584.928 8.54 584.721 7.92667 584.308 7.54C583.908 7.14 583.248 6.94 582.328 6.94C581.635 6.94 581.008 7.07333 580.448 7.34C579.888 7.60667 579.435 7.94667 579.088 8.36C578.741 8.76 578.541 9.18 578.488 9.62L578.468 8.6C578.535 8.13333 578.688 7.68 578.928 7.24C579.168 6.8 579.488 6.4 579.888 6.04C580.301 5.66667 580.788 5.37333 581.348 5.16C581.908 4.94667 582.541 4.84 583.248 4.84ZM589.495 11.7H591.895C592.042 12.1533 592.342 12.5267 592.795 12.82C593.262 13.1 593.869 13.24 594.615 13.24C595.122 13.24 595.515 13.1933 595.795 13.1C596.075 13.0067 596.269 12.8733 596.375 12.7C596.482 12.5133 596.535 12.3067 596.535 12.08C596.535 11.8 596.449 11.5867 596.275 11.44C596.102 11.28 595.835 11.1533 595.475 11.06C595.115 10.9667 594.655 10.88 594.095 10.8C593.535 10.7067 592.995 10.5933 592.475 10.46C591.955 10.3267 591.495 10.1533 591.095 9.94C590.695 9.71333 590.375 9.43333 590.135 9.1C589.909 8.75333 589.795 8.33333 589.795 7.84C589.795 7.36 589.909 6.93333 590.135 6.56C590.375 6.18667 590.702 5.87333 591.115 5.62C591.542 5.36667 592.035 5.17333 592.595 5.04C593.169 4.90667 593.782 4.84 594.435 4.84C595.422 4.84 596.242 4.98667 596.895 5.28C597.549 5.56 598.035 5.96 598.355 6.48C598.689 6.98667 598.855 7.57333 598.855 8.24H596.555C596.449 7.74667 596.235 7.39333 595.915 7.18C595.595 6.95333 595.102 6.84 594.435 6.84C593.782 6.84 593.289 6.94 592.955 7.14C592.622 7.34 592.455 7.61333 592.455 7.96C592.455 8.24 592.555 8.46 592.755 8.62C592.969 8.76667 593.275 8.88667 593.675 8.98C594.089 9.07333 594.602 9.17333 595.215 9.28C595.735 9.38667 596.229 9.50667 596.695 9.64C597.175 9.77333 597.602 9.94667 597.975 10.16C598.349 10.36 598.642 10.6333 598.855 10.98C599.082 11.3133 599.195 11.74 599.195 12.26C599.195 12.9 599.009 13.44 598.635 13.88C598.275 14.32 597.755 14.66 597.075 14.9C596.395 15.1267 595.582 15.24 594.635 15.24C593.795 15.24 593.069 15.1533 592.455 14.98C591.855 14.7933 591.355 14.56 590.955 14.28C590.555 13.9867 590.242 13.68 590.015 13.36C589.802 13.0267 589.655 12.7133 589.575 12.42C589.495 12.1267 589.469 11.8867 589.495 11.7Z" fill="black"/>
<path d="M631.062 2.5345C631.384 1.66389 632.616 1.66389 632.938 2.53451L634.001 5.40803C634.102 5.68175 634.318 5.89756 634.592 5.99885L637.465 7.06215C638.336 7.38431 638.336 8.61569 637.465 8.93785L634.592 10.0012C634.318 10.1024 634.102 10.3182 634.001 10.592L632.938 13.4655C632.616 14.3361 631.384 14.3361 631.062 13.4655L629.999 10.592C629.898 10.3182 629.682 10.1024 629.408 10.0012L626.535 8.93785C625.664 8.61569 625.664 7.38431 626.535 7.06215L629.408 5.99885C629.682 5.89756 629.898 5.68175 629.999 5.40803L631.062 2.5345Z" fill="black"/>
<path d="M667.84 10.8V8.68H673.76C674.467 8.68 675.027 8.49333 675.44 8.12C675.853 7.73333 676.06 7.2 676.06 6.52C676.06 5.81333 675.853 5.27333 675.44 4.9C675.027 4.52667 674.467 4.34 673.76 4.34H668.16V15H665.5V2.06H673.52C674.24 2.06 674.913 2.14667 675.54 2.32C676.18 2.49333 676.733 2.76 677.2 3.12C677.68 3.48 678.053 3.94 678.32 4.5C678.587 5.06 678.72 5.73333 678.72 6.52C678.72 7.29333 678.587 7.95333 678.32 8.5C678.053 9.04667 677.68 9.49333 677.2 9.84C676.733 10.1733 676.18 10.42 675.54 10.58C674.913 10.7267 674.24 10.8 673.52 10.8H667.84ZM685.392 15.22C684.405 15.22 683.505 15.0067 682.692 14.58C681.892 14.14 681.252 13.5333 680.772 12.76C680.305 11.9733 680.072 11.0667 680.072 10.04C680.072 8.98667 680.312 8.07333 680.792 7.3C681.272 6.52667 681.918 5.92667 682.732 5.5C683.558 5.06 684.492 4.84 685.532 4.84C686.678 4.84 687.598 5.07333 688.292 5.54C688.998 5.99333 689.512 6.61333 689.832 7.4C690.152 8.18667 690.312 9.06667 690.312 10.04C690.312 10.6267 690.218 11.2267 690.032 11.84C689.845 12.44 689.558 13 689.172 13.52C688.785 14.0267 688.278 14.44 687.652 14.76C687.025 15.0667 686.272 15.22 685.392 15.22ZM686.232 13.22C687.018 13.22 687.698 13.0867 688.272 12.82C688.845 12.5533 689.285 12.18 689.592 11.7C689.898 11.22 690.052 10.6667 690.052 10.04C690.052 9.36 689.892 8.78667 689.572 8.32C689.265 7.84 688.825 7.48 688.252 7.24C687.692 6.98667 687.018 6.86 686.232 6.86C685.125 6.86 684.265 7.15333 683.652 7.74C683.038 8.31333 682.732 9.08 682.732 10.04C682.732 10.68 682.878 11.24 683.172 11.72C683.465 12.1867 683.872 12.5533 684.392 12.82C684.925 13.0867 685.538 13.22 686.232 13.22ZM690.052 5.06H692.652V15H690.232C690.232 15 690.212 14.8733 690.172 14.62C690.145 14.3533 690.118 14.02 690.092 13.62C690.065 13.22 690.052 12.8267 690.052 12.44V5.06ZM694.305 5.06H702.025V7.08H694.305V5.06ZM696.865 2.34H699.465V15H696.865V2.34ZM706.657 0.699999V2.98H703.637V0.699999H706.657ZM703.837 5.06H706.437V15H703.837V5.06ZM709.028 5.06H711.628V15H709.028V5.06ZM716.248 4.84C716.861 4.84 717.428 4.92 717.948 5.08C718.468 5.24 718.921 5.48667 719.308 5.82C719.695 6.15333 719.995 6.58 720.208 7.1C720.421 7.60667 720.528 8.21333 720.528 8.92V15H717.928V9.38C717.928 8.54 717.721 7.92667 717.308 7.54C716.908 7.14 716.248 6.94 715.328 6.94C714.635 6.94 714.008 7.07333 713.448 7.34C712.888 7.60667 712.435 7.94667 712.088 8.36C711.741 8.76 711.541 9.18 711.488 9.62L711.468 8.6C711.535 8.13333 711.688 7.68 711.928 7.24C712.168 6.8 712.488 6.4 712.888 6.04C713.301 5.66667 713.788 5.37333 714.348 5.16C714.908 4.94667 715.541 4.84 716.248 4.84ZM722.495 11.7H724.895C725.042 12.1533 725.342 12.5267 725.795 12.82C726.262 13.1 726.869 13.24 727.615 13.24C728.122 13.24 728.515 13.1933 728.795 13.1C729.075 13.0067 729.269 12.8733 729.375 12.7C729.482 12.5133 729.535 12.3067 729.535 12.08C729.535 11.8 729.449 11.5867 729.275 11.44C729.102 11.28 728.835 11.1533 728.475 11.06C728.115 10.9667 727.655 10.88 727.095 10.8C726.535 10.7067 725.995 10.5933 725.475 10.46C724.955 10.3267 724.495 10.1533 724.095 9.94C723.695 9.71333 723.375 9.43333 723.135 9.1C722.909 8.75333 722.795 8.33333 722.795 7.84C722.795 7.36 722.909 6.93333 723.135 6.56C723.375 6.18667 723.702 5.87333 724.115 5.62C724.542 5.36667 725.035 5.17333 725.595 5.04C726.169 4.90667 726.782 4.84 727.435 4.84C728.422 4.84 729.242 4.98667 729.895 5.28C730.549 5.56 731.035 5.96 731.355 6.48C731.689 6.98667 731.855 7.57333 731.855 8.24H729.555C729.449 7.74667 729.235 7.39333 728.915 7.18C728.595 6.95333 728.102 6.84 727.435 6.84C726.782 6.84 726.289 6.94 725.955 7.14C725.622 7.34 725.455 7.61333 725.455 7.96C725.455 8.24 725.555 8.46 725.755 8.62C725.969 8.76667 726.275 8.88667 726.675 8.98C727.089 9.07333 727.602 9.17333 728.215 9.28C728.735 9.38667 729.229 9.50667 729.695 9.64C730.175 9.77333 730.602 9.94667 730.975 10.16C731.349 10.36 731.642 10.6333 731.855 10.98C732.082 11.3133 732.195 11.74 732.195 12.26C732.195 12.9 732.009 13.44 731.635 13.88C731.275 14.32 730.755 14.66 730.075 14.9C729.395 15.1267 728.582 15.24 727.635 15.24C726.795 15.24 726.069 15.1533 725.455 14.98C724.855 14.7933 724.355 14.56 723.955 14.28C723.555 13.9867 723.242 13.68 723.015 13.36C722.802 13.0267 722.655 12.7133 722.575 12.42C722.495 12.1267 722.469 11.8867 722.495 11.7Z" fill="black"/>
<path d="M764.062 2.5345C764.384 1.66389 765.616 1.66389 765.938 2.53451L767.001 5.40803C767.102 5.68175 767.318 5.89756 767.592 5.99885L770.465 7.06215C771.336 7.38431 771.336 8.61569 770.465 8.93785L767.592 10.0012C767.318 10.1024 767.102 10.3182 767.001 10.592L765.938 13.4655C765.616 14.3361 764.384 14.3361 764.062 13.4655L762.999 10.592C762.898 10.3182 762.682 10.1024 762.408 10.0012L759.535 8.93785C758.664 8.61569 758.664 7.38431 759.535 7.06215L762.408 5.99885C762.682 5.89756 762.898 5.68175 762.999 5.40803L764.062 2.5345Z" fill="black"/>
<path d="M800.84 10.8V8.68H806.76C807.467 8.68 808.027 8.49333 808.44 8.12C808.853 7.73333 809.06 7.2 809.06 6.52C809.06 5.81333 808.853 5.27333 808.44 4.9C808.027 4.52667 807.467 4.34 806.76 4.34H801.16V15H798.5V2.06H806.52C807.24 2.06 807.913 2.14667 808.54 2.32C809.18 2.49333 809.733 2.76 810.2 3.12C810.68 3.48 811.053 3.94 811.32 4.5C811.587 5.06 811.72 5.73333 811.72 6.52C811.72 7.29333 811.587 7.95333 811.32 8.5C811.053 9.04667 810.68 9.49333 810.2 9.84C809.733 10.1733 809.18 10.42 808.54 10.58C807.913 10.7267 807.24 10.8 806.52 10.8H800.84ZM818.392 15.22C817.405 15.22 816.505 15.0067 815.692 14.58C814.892 14.14 814.252 13.5333 813.772 12.76C813.305 11.9733 813.072 11.0667 813.072 10.04C813.072 8.98667 813.312 8.07333 813.792 7.3C814.272 6.52667 814.918 5.92667 815.732 5.5C816.558 5.06 817.492 4.84 818.532 4.84C819.678 4.84 820.598 5.07333 821.292 5.54C821.998 5.99333 822.512 6.61333 822.832 7.4C823.152 8.18667 823.312 9.06667 823.312 10.04C823.312 10.6267 823.218 11.2267 823.032 11.84C822.845 12.44 822.558 13 822.172 13.52C821.785 14.0267 821.278 14.44 820.652 14.76C820.025 15.0667 819.272 15.22 818.392 15.22ZM819.232 13.22C820.018 13.22 820.698 13.0867 821.272 12.82C821.845 12.5533 822.285 12.18 822.592 11.7C822.898 11.22 823.052 10.6667 823.052 10.04C823.052 9.36 822.892 8.78667 822.572 8.32C822.265 7.84 821.825 7.48 821.252 7.24C820.692 6.98667 820.018 6.86 819.232 6.86C818.125 6.86 817.265 7.15333 816.652 7.74C816.038 8.31333 815.732 9.08 815.732 10.04C815.732 10.68 815.878 11.24 816.172 11.72C816.465 12.1867 816.872 12.5533 817.392 12.82C817.925 13.0867 818.538 13.22 819.232 13.22ZM823.052 5.06H825.652V15H823.232C823.232 15 823.212 14.8733 823.172 14.62C823.145 14.3533 823.118 14.02 823.092 13.62C823.065 13.22 823.052 12.8267 823.052 12.44V5.06ZM827.305 5.06H835.025V7.08H827.305V5.06ZM829.865 2.34H832.465V15H829.865V2.34ZM839.657 0.699999V2.98H836.637V0.699999H839.657ZM836.837 5.06H839.437V15H836.837V5.06ZM842.028 5.06H844.628V15H842.028V5.06ZM849.248 4.84C849.861 4.84 850.428 4.92 850.948 5.08C851.468 5.24 851.921 5.48667 852.308 5.82C852.695 6.15333 852.995 6.58 853.208 7.1C853.421 7.60667 853.528 8.21333 853.528 8.92V15H850.928V9.38C850.928 8.54 850.721 7.92667 850.308 7.54C849.908 7.14 849.248 6.94 848.328 6.94C847.635 6.94 847.008 7.07333 846.448 7.34C845.888 7.60667 845.435 7.94667 845.088 8.36C844.741 8.76 844.541 9.18 844.488 9.62L844.468 8.6C844.535 8.13333 844.688 7.68 844.928 7.24C845.168 6.8 845.488 6.4 845.888 6.04C846.301 5.66667 846.788 5.37333 847.348 5.16C847.908 4.94667 848.541 4.84 849.248 4.84ZM855.495 11.7H857.895C858.042 12.1533 858.342 12.5267 858.795 12.82C859.262 13.1 859.869 13.24 860.615 13.24C861.122 13.24 861.515 13.1933 861.795 13.1C862.075 13.0067 862.269 12.8733 862.375 12.7C862.482 12.5133 862.535 12.3067 862.535 12.08C862.535 11.8 862.449 11.5867 862.275 11.44C862.102 11.28 861.835 11.1533 861.475 11.06C861.115 10.9667 860.655 10.88 860.095 10.8C859.535 10.7067 858.995 10.5933 858.475 10.46C857.955 10.3267 857.495 10.1533 857.095 9.94C856.695 9.71333 856.375 9.43333 856.135 9.1C855.909 8.75333 855.795 8.33333 855.795 7.84C855.795 7.36 855.909 6.93333 856.135 6.56C856.375 6.18667 856.702 5.87333 857.115 5.62C857.542 5.36667 858.035 5.17333 858.595 5.04C859.169 4.90667 859.782 4.84 860.435 4.84C861.422 4.84 862.242 4.98667 862.895 5.28C863.549 5.56 864.035 5.96 864.355 6.48C864.689 6.98667 864.855 7.57333 864.855 8.24H862.555C862.449 7.74667 862.235 7.39333 861.915 7.18C861.595 6.95333 861.102 6.84 860.435 6.84C859.782 6.84 859.289 6.94 858.955 7.14C858.622 7.34 858.455 7.61333 858.455 7.96C858.455 8.24 858.555 8.46 858.755 8.62C858.969 8.76667 859.275 8.88667 859.675 8.98C860.089 9.07333 860.602 9.17333 861.215 9.28C861.735 9.38667 862.229 9.50667 862.695 9.64C863.175 9.77333 863.602 9.94667 863.975 10.16C864.349 10.36 864.642 10.6333 864.855 10.98C865.082 11.3133 865.195 11.74 865.195 12.26C865.195 12.9 865.009 13.44 864.635 13.88C864.275 14.32 863.755 14.66 863.075 14.9C862.395 15.1267 861.582 15.24 860.635 15.24C859.795 15.24 859.069 15.1533 858.455 14.98C857.855 14.7933 857.355 14.56 856.955 14.28C856.555 13.9867 856.242 13.68 856.015 13.36C855.802 13.0267 855.655 12.7133 855.575 12.42C855.495 12.1267 855.469 11.8867 855.495 11.7Z" fill="black"/>
<path d="M897.062 2.5345C897.384 1.66389 898.616 1.66389 898.938 2.53451L900.001 5.40803C900.102 5.68175 900.318 5.89756 900.592 5.99885L903.465 7.06215C904.336 7.38431 904.336 8.61569 903.465 8.93785L900.592 10.0012C900.318 10.1024 900.102 10.3182 900.001 10.592L898.938 13.4655C898.616 14.3361 897.384 14.3361 897.062 13.4655L895.999 10.592C895.898 10.3182 895.682 10.1024 895.408 10.0012L892.535 8.93785C891.664 8.61569 891.664 7.38431 892.535 7.06215L895.408 5.99885C895.682 5.89756 895.898 5.68175 895.999 5.40803L897.062 2.5345Z" fill="black"/>
<path d="M933.84 10.8V8.68H939.76C940.467 8.68 941.027 8.49333 941.44 8.12C941.853 7.73333 942.06 7.2 942.06 6.52C942.06 5.81333 941.853 5.27333 941.44 4.9C941.027 4.52667 940.467 4.34 939.76 4.34H934.16V15H931.5V2.06H939.52C940.24 2.06 940.913 2.14667 941.54 2.32C942.18 2.49333 942.733 2.76 943.2 3.12C943.68 3.48 944.053 3.94 944.32 4.5C944.587 5.06 944.72 5.73333 944.72 6.52C944.72 7.29333 944.587 7.95333 944.32 8.5C944.053 9.04667 943.68 9.49333 943.2 9.84C942.733 10.1733 942.18 10.42 941.54 10.58C940.913 10.7267 940.24 10.8 939.52 10.8H933.84ZM951.392 15.22C950.405 15.22 949.505 15.0067 948.692 14.58C947.892 14.14 947.252 13.5333 946.772 12.76C946.305 11.9733 946.072 11.0667 946.072 10.04C946.072 8.98667 946.312 8.07333 946.792 7.3C947.272 6.52667 947.918 5.92667 948.732 5.5C949.558 5.06 950.492 4.84 951.532 4.84C952.678 4.84 953.598 5.07333 954.292 5.54C954.998 5.99333 955.512 6.61333 955.832 7.4C956.152 8.18667 956.312 9.06667 956.312 10.04C956.312 10.6267 956.218 11.2267 956.032 11.84C955.845 12.44 955.558 13 955.172 13.52C954.785 14.0267 954.278 14.44 953.652 14.76C953.025 15.0667 952.272 15.22 951.392 15.22ZM952.232 13.22C953.018 13.22 953.698 13.0867 954.272 12.82C954.845 12.5533 955.285 12.18 955.592 11.7C955.898 11.22 956.052 10.6667 956.052 10.04C956.052 9.36 955.892 8.78667 955.572 8.32C955.265 7.84 954.825 7.48 954.252 7.24C953.692 6.98667 953.018 6.86 952.232 6.86C951.125 6.86 950.265 7.15333 949.652 7.74C949.038 8.31333 948.732 9.08 948.732 10.04C948.732 10.68 948.878 11.24 949.172 11.72C949.465 12.1867 949.872 12.5533 950.392 12.82C950.925 13.0867 951.538 13.22 952.232 13.22ZM956.052 5.06H958.652V15H956.232C956.232 15 956.212 14.8733 956.172 14.62C956.145 14.3533 956.118 14.02 956.092 13.62C956.065 13.22 956.052 12.8267 956.052 12.44V5.06ZM960.305 5.06H968.025V7.08H960.305V5.06ZM962.865 2.34H965.465V15H962.865V2.34ZM972.657 0.699999V2.98H969.637V0.699999H972.657ZM969.837 5.06H972.437V15H969.837V5.06ZM975.028 5.06H977.628V15H975.028V5.06ZM982.248 4.84C982.861 4.84 983.428 4.92 983.948 5.08C984.468 5.24 984.921 5.48667 985.308 5.82C985.695 6.15333 985.995 6.58 986.208 7.1C986.421 7.60667 986.528 8.21333 986.528 8.92V15H983.928V9.38C983.928 8.54 983.721 7.92667 983.308 7.54C982.908 7.14 982.248 6.94 981.328 6.94C980.635 6.94 980.008 7.07333 979.448 7.34C978.888 7.60667 978.435 7.94667 978.088 8.36C977.741 8.76 977.541 9.18 977.488 9.62L977.468 8.6C977.535 8.13333 977.688 7.68 977.928 7.24C978.168 6.8 978.488 6.4 978.888 6.04C979.301 5.66667 979.788 5.37333 980.348 5.16C980.908 4.94667 981.541 4.84 982.248 4.84ZM988.495 11.7H990.895C991.042 12.1533 991.342 12.5267 991.795 12.82C992.262 13.1 992.869 13.24 993.615 13.24C994.122 13.24 994.515 13.1933 994.795 13.1C995.075 13.0067 995.269 12.8733 995.375 12.7C995.482 12.5133 995.535 12.3067 995.535 12.08C995.535 11.8 995.449 11.5867 995.275 11.44C995.102 11.28 994.835 11.1533 994.475 11.06C994.115 10.9667 993.655 10.88 993.095 10.8C992.535 10.7067 991.995 10.5933 991.475 10.46C990.955 10.3267 990.495 10.1533 990.095 9.94C989.695 9.71333 989.375 9.43333 989.135 9.1C988.909 8.75333 988.795 8.33333 988.795 7.84C988.795 7.36 988.909 6.93333 989.135 6.56C989.375 6.18667 989.702 5.87333 990.115 5.62C990.542 5.36667 991.035 5.17333 991.595 5.04C992.169 4.90667 992.782 4.84 993.435 4.84C994.422 4.84 995.242 4.98667 995.895 5.28C996.549 5.56 997.035 5.96 997.355 6.48C997.689 6.98667 997.855 7.57333 997.855 8.24H995.555C995.449 7.74667 995.235 7.39333 994.915 7.18C994.595 6.95333 994.102 6.84 993.435 6.84C992.782 6.84 992.289 6.94 991.955 7.14C991.622 7.34 991.455 7.61333 991.455 7.96C991.455 8.24 991.555 8.46 991.755 8.62C991.969 8.76667 992.275 8.88667 992.675 8.98C993.089 9.07333 993.602 9.17333 994.215 9.28C994.735 9.38667 995.229 9.50667 995.695 9.64C996.175 9.77333 996.602 9.94667 996.975 10.16C997.349 10.36 997.642 10.6333 997.855 10.98C998.082 11.3133 998.195 11.74 998.195 12.26C998.195 12.9 998.009 13.44 997.635 13.88C997.275 14.32 996.755 14.66 996.075 14.9C995.395 15.1267 994.582 15.24 993.635 15.24C992.795 15.24 992.069 15.1533 991.455 14.98C990.855 14.7933 990.355 14.56 989.955 14.28C989.555 13.9867 989.242 13.68 989.015 13.36C988.802 13.0267 988.655 12.7133 988.575 12.42C988.495 12.1267 988.469 11.8867 988.495 11.7Z" fill="black"/>
<path d="M1030.06 2.5345C1030.38 1.66389 1031.62 1.66389 1031.94 2.53451L1033 5.40803C1033.1 5.68175 1033.32 5.89756 1033.59 5.99885L1036.47 7.06215C1037.34 7.38431 1037.34 8.61569 1036.47 8.93785L1033.59 10.0012C1033.32 10.1024 1033.1 10.3182 1033 10.592L1031.94 13.4655C1031.62 14.3361 1030.38 14.3361 1030.06 13.4655L1029 10.592C1028.9 10.3182 1028.68 10.1024 1028.41 10.0012L1025.53 8.93785C1024.66 8.61569 1024.66 7.38431 1025.53 7.06215L1028.41 5.99885C1028.68 5.89756 1028.9 5.68175 1029 5.40803L1030.06 2.5345Z" fill="black"/>
<path d="M1066.84 10.8V8.68H1072.76C1073.47 8.68 1074.03 8.49333 1074.44 8.12C1074.85 7.73333 1075.06 7.2 1075.06 6.52C1075.06 5.81333 1074.85 5.27333 1074.44 4.9C1074.03 4.52667 1073.47 4.34 1072.76 4.34H1067.16V15H1064.5V2.06H1072.52C1073.24 2.06 1073.91 2.14667 1074.54 2.32C1075.18 2.49333 1075.73 2.76 1076.2 3.12C1076.68 3.48 1077.05 3.94 1077.32 4.5C1077.59 5.06 1077.72 5.73333 1077.72 6.52C1077.72 7.29333 1077.59 7.95333 1077.32 8.5C1077.05 9.04667 1076.68 9.49333 1076.2 9.84C1075.73 10.1733 1075.18 10.42 1074.54 10.58C1073.91 10.7267 1073.24 10.8 1072.52 10.8H1066.84ZM1084.39 15.22C1083.4 15.22 1082.5 15.0067 1081.69 14.58C1080.89 14.14 1080.25 13.5333 1079.77 12.76C1079.3 11.9733 1079.07 11.0667 1079.07 10.04C1079.07 8.98667 1079.31 8.07333 1079.79 7.3C1080.27 6.52667 1080.92 5.92667 1081.73 5.5C1082.56 5.06 1083.49 4.84 1084.53 4.84C1085.68 4.84 1086.6 5.07333 1087.29 5.54C1088 5.99333 1088.51 6.61333 1088.83 7.4C1089.15 8.18667 1089.31 9.06667 1089.31 10.04C1089.31 10.6267 1089.22 11.2267 1089.03 11.84C1088.84 12.44 1088.56 13 1088.17 13.52C1087.78 14.0267 1087.28 14.44 1086.65 14.76C1086.02 15.0667 1085.27 15.22 1084.39 15.22ZM1085.23 13.22C1086.02 13.22 1086.7 13.0867 1087.27 12.82C1087.84 12.5533 1088.28 12.18 1088.59 11.7C1088.9 11.22 1089.05 10.6667 1089.05 10.04C1089.05 9.36 1088.89 8.78667 1088.57 8.32C1088.26 7.84 1087.82 7.48 1087.25 7.24C1086.69 6.98667 1086.02 6.86 1085.23 6.86C1084.12 6.86 1083.26 7.15333 1082.65 7.74C1082.04 8.31333 1081.73 9.08 1081.73 10.04C1081.73 10.68 1081.88 11.24 1082.17 11.72C1082.46 12.1867 1082.87 12.5533 1083.39 12.82C1083.92 13.0867 1084.54 13.22 1085.23 13.22ZM1089.05 5.06H1091.65V15H1089.23C1089.23 15 1089.21 14.8733 1089.17 14.62C1089.14 14.3533 1089.12 14.02 1089.09 13.62C1089.06 13.22 1089.05 12.8267 1089.05 12.44V5.06ZM1093.3 5.06H1101.02V7.08H1093.3V5.06ZM1095.86 2.34H1098.46V15H1095.86V2.34ZM1105.66 0.699999V2.98H1102.64V0.699999H1105.66ZM1102.84 5.06H1105.44V15H1102.84V5.06ZM1108.03 5.06H1110.63V15H1108.03V5.06ZM1115.25 4.84C1115.86 4.84 1116.43 4.92 1116.95 5.08C1117.47 5.24 1117.92 5.48667 1118.31 5.82C1118.69 6.15333 1118.99 6.58 1119.21 7.1C1119.42 7.60667 1119.53 8.21333 1119.53 8.92V15H1116.93V9.38C1116.93 8.54 1116.72 7.92667 1116.31 7.54C1115.91 7.14 1115.25 6.94 1114.33 6.94C1113.63 6.94 1113.01 7.07333 1112.45 7.34C1111.89 7.60667 1111.43 7.94667 1111.09 8.36C1110.74 8.76 1110.54 9.18 1110.49 9.62L1110.47 8.6C1110.53 8.13333 1110.69 7.68 1110.93 7.24C1111.17 6.8 1111.49 6.4 1111.89 6.04C1112.3 5.66667 1112.79 5.37333 1113.35 5.16C1113.91 4.94667 1114.54 4.84 1115.25 4.84ZM1121.5 11.7H1123.9C1124.04 12.1533 1124.34 12.5267 1124.8 12.82C1125.26 13.1 1125.87 13.24 1126.62 13.24C1127.12 13.24 1127.52 13.1933 1127.8 13.1C1128.08 13.0067 1128.27 12.8733 1128.38 12.7C1128.48 12.5133 1128.54 12.3067 1128.54 12.08C1128.54 11.8 1128.45 11.5867 1128.28 11.44C1128.1 11.28 1127.84 11.1533 1127.48 11.06C1127.12 10.9667 1126.66 10.88 1126.1 10.8C1125.54 10.7067 1125 10.5933 1124.48 10.46C1123.96 10.3267 1123.5 10.1533 1123.1 9.94C1122.7 9.71333 1122.38 9.43333 1122.14 9.1C1121.91 8.75333 1121.8 8.33333 1121.8 7.84C1121.8 7.36 1121.91 6.93333 1122.14 6.56C1122.38 6.18667 1122.7 5.87333 1123.12 5.62C1123.54 5.36667 1124.04 5.17333 1124.6 5.04C1125.17 4.90667 1125.78 4.84 1126.44 4.84C1127.42 4.84 1128.24 4.98667 1128.9 5.28C1129.55 5.56 1130.04 5.96 1130.36 6.48C1130.69 6.98667 1130.86 7.57333 1130.86 8.24H1128.56C1128.45 7.74667 1128.24 7.39333 1127.92 7.18C1127.6 6.95333 1127.1 6.84 1126.44 6.84C1125.78 6.84 1125.29 6.94 1124.96 7.14C1124.62 7.34 1124.46 7.61333 1124.46 7.96C1124.46 8.24 1124.56 8.46 1124.76 8.62C1124.97 8.76667 1125.28 8.88667 1125.68 8.98C1126.09 9.07333 1126.6 9.17333 1127.22 9.28C1127.74 9.38667 1128.23 9.50667 1128.7 9.64C1129.18 9.77333 1129.6 9.94667 1129.98 10.16C1130.35 10.36 1130.64 10.6333 1130.86 10.98C1131.08 11.3133 1131.2 11.74 1131.2 12.26C1131.2 12.9 1131.01 13.44 1130.64 13.88C1130.28 14.32 1129.76 14.66 1129.08 14.9C1128.4 15.1267 1127.58 15.24 1126.64 15.24C1125.8 15.24 1125.07 15.1533 1124.46 14.98C1123.86 14.7933 1123.36 14.56 1122.96 14.28C1122.56 13.9867 1122.24 13.68 1122.02 13.36C1121.8 13.0267 1121.66 12.7133 1121.58 12.42C1121.5 12.1267 1121.47 11.8867 1121.5 11.7Z" fill="black"/>
<path d="M1163.06 2.5345C1163.38 1.66389 1164.62 1.66389 1164.94 2.53451L1166 5.40803C1166.1 5.68175 1166.32 5.89756 1166.59 5.99885L1169.47 7.06215C1170.34 7.38431 1170.34 8.61569 1169.47 8.93785L1166.59 10.0012C1166.32 10.1024 1166.1 10.3182 1166 10.592L1164.94 13.4655C1164.62 14.3361 1163.38 14.3361 1163.06 13.4655L1162 10.592C1161.9 10.3182 1161.68 10.1024 1161.41 10.0012L1158.53 8.93785C1157.66 8.61569 1157.66 7.38431 1158.53 7.06215L1161.41 5.99885C1161.68 5.89756 1161.9 5.68175 1162 5.40803L1163.06 2.5345Z" fill="black"/>
</svg>